<?xml version="1.0" encoding="UTF-8" standalone="no"?>
<!DOCTYPE svg PUBLIC "-//W3C//DTD SVG 1.1//EN" "http://www.w3.org/Graphics/SVG/1.1/DTD/svg11.dtd">
<svg version="1.1" xmlns="http://www.w3.org/2000/svg" xmlns:xlink="http://www.w3.org/1999/xlink" preserveAspectRatio="xMidYMid meet" viewBox="152.59375 31.834787368774414 336.8125 336.8125" width="332.81" height="332.81"><defs><path d="M486.41 199.24C486.41 291.08 411.84 365.65 320 365.65C228.16 365.65 153.59 291.08 153.59 199.24C153.59 107.4 228.16 32.83 320 32.83C411.84 32.83 486.41 107.4 486.41 199.24Z" id="a1KEtIPbSG"></path><path d="M383.67 102.76C383.67 137.9 355.14 166.43 320 166.43C284.86 166.43 256.33 137.9 256.33 102.76C256.33 67.62 284.86 39.08 320 39.08C355.14 39.08 383.67 67.62 383.67 102.76Z" id="b1fmrZTonm"></path><path d="M331.21 171.5L336.72 171.99L342.16 172.65L347.54 173.5L352.84 174.52L358.06 175.72L363.19 177.09L368.24 178.63L373.2 180.33L378.05 182.19L382.81 184.2L387.46 186.37L392 188.68L396.42 191.14L400.72 193.74L404.9 196.47L408.95 199.34L412.87 202.34L416.66 205.46L420.3 208.7L423.79 212.06L427.14 215.53L430.33 219.11L433.36 222.8L436.22 226.59L438.92 230.48L441.45 234.47L443.8 238.54L445.97 242.71L447.95 246.95L449.74 251.28L451.34 255.68L452.74 260.16L453.94 264.7L454.93 269.31L455.7 273.97L456.27 278.7L456.6 283.48L456.72 288.3L456.6 293.13L456.52 294.31L454.28 297.49L450.4 302.58L446.33 307.51L442.08 312.28L437.64 316.88L433.04 321.32L428.27 325.57L423.34 329.64L418.25 333.52L413.01 337.21L407.63 340.7L402.1 343.99L396.45 347.06L390.66 349.92L384.75 352.56L378.72 354.98L372.57 357.16L366.32 359.1L359.97 360.81L353.52 362.26L346.98 363.47L340.35 364.41L333.64 365.1L326.85 365.51L320 365.65L313.15 365.51L306.36 365.1L299.65 364.41L293.02 363.47L286.48 362.26L280.03 360.81L273.68 359.1L267.43 357.16L261.28 354.98L255.25 352.56L249.34 349.92L243.55 347.06L237.9 343.99L232.37 340.7L226.99 337.21L221.75 333.52L216.66 329.64L211.73 325.57L206.96 321.32L202.36 316.88L197.92 312.28L193.67 307.51L189.6 302.58L185.72 297.49L183.48 294.31L183.4 293.13L183.28 288.3L183.4 283.48L183.73 278.7L184.3 273.97L185.07 269.31L186.06 264.7L187.26 260.16L188.66 255.68L190.26 251.28L192.05 246.95L194.03 242.71L196.2 238.54L198.55 234.47L201.08 230.48L203.78 226.59L206.64 222.8L209.67 219.11L212.86 215.53L216.21 212.06L219.7 208.7L223.34 205.46L227.13 202.34L231.05 199.34L235.1 196.47L239.28 193.74L243.58 191.14L248 188.68L252.54 186.37L257.19 184.2L261.95 182.19L266.8 180.33L271.76 178.63L276.81 177.09L281.94 175.72L287.16 174.52L292.46 173.5L297.84 172.65L303.28 171.99L308.79 171.5L314.37 171.21L320 171.12L325.63 171.21L331.21 171.5Z" id="mgRFyls63"></path><linearGradient id="gradiente1Am8V6zsF" gradientUnits="userSpaceOnUse" x1="278.59" y1="187.33" x2="360.63" y2="370.83"><stop style="stop-color: #e3f3f9;stop-opacity: 1" offset="0%"></stop><stop style="stop-color: #0c83b7;stop-opacity: 1" offset="100%"></stop></linearGradient></defs><g><g><use xlink:href="#a1KEtIPbSG" opacity="1" fill="#e8e8e8" fill-opacity="1"></use></g><g><use xlink:href="#b1fmrZTonm" opacity="1" fill="#aaaaaa" fill-opacity="1"></use></g><g><use xlink:href="#mgRFyls63" opacity="1" fill="url(#gradiente1Am8V6zsF)"></use></g></g></svg>